HIERARCHY
ROOT Pelvis
{
	OFFSET 0.000000 0.000000 0.000000
	CHANNELS 6 Xposition Yposition Zposition Xrotation Yrotation Zrotation
	JOINT LeftUpLeg_virtual
	{
		OFFSET 0.000000 0.000000 0.000000
		CHANNELS 3 Xrotation Yrotation Zrotation
		JOINT LeftUpLeg
		{
			OFFSET 18.735201 -5.666702 -4.541200
			CHANNELS 3 Xrotation Yrotation Zrotation
			JOINT LeftLeg
			{
				OFFSET -0.021200 -31.938179 0.493100
				CHANNELS 3 Xrotation Yrotation Zrotation
				JOINT LeftFoot
				{
					OFFSET 0.021200 -31.938179 -4.336299
					CHANNELS 3 Xrotation Yrotation Zrotation
					JOINT LeftToeBase
					{
						OFFSET 0.943001 -26.722000 15.023500
						CHANNELS 3 Xrotation Yrotation Zrotation
						End Site
						{
							OFFSET 0 0 0
						}
					}
				}
			}
		}
	}
	JOINT RightUpLeg_virtual
	{
		OFFSET 0.000000 0.000000 0.000000
		CHANNELS 3 Xrotation Yrotation Zrotation
		JOINT RightUpLeg
		{
			OFFSET -18.735201 -5.666702 -4.541200
			CHANNELS 3 Xrotation Yrotation Zrotation
			JOINT RightLeg
			{
				OFFSET 0.018946 -31.938133 0.493100
				CHANNELS 3 Xrotation Yrotation Zrotation
				JOINT RightFoot
				{
					OFFSET -0.018946 -31.938126 -4.336299
					CHANNELS 3 Xrotation Yrotation Zrotation
					JOINT RightToeBase
					{
						OFFSET -0.943001 -26.722004 15.023500
						CHANNELS 3 Xrotation Yrotation Zrotation
						End Site
						{
							OFFSET 0 0 0
						}
					}
				}
			}
		}
	}
	JOINT Hips_virtual
	{
		OFFSET 0.000000 0.000000 0.000000
		CHANNELS 3 Xrotation Yrotation Zrotation
		JOINT Hips
		{
			OFFSET -0.000000 -0.000000 -0.000000
			CHANNELS 3 Xrotation Yrotation Zrotation
			JOINT Spine
			{
				OFFSET 0.000000 10.199997 -0.299500
				CHANNELS 3 Xrotation Yrotation Zrotation
				JOINT Spine1
				{
					OFFSET 0.000000 11.900002 -1.516600
					CHANNELS 3 Xrotation Yrotation Zrotation
					JOINT Spine2
					{
						OFFSET 0.000000 13.600006 -2.842500
						CHANNELS 3 Xrotation Yrotation Zrotation
						JOINT Neck_virtual
						{
							OFFSET 0.000000 0.000000 0.000000
							CHANNELS 3 Xrotation Yrotation Zrotation
							JOINT Neck
							{
								OFFSET 0.000000 9.624100 -2.890100
								CHANNELS 3 Xrotation Yrotation Zrotation
								JOINT Head
								{
									OFFSET 0.000000 14.068802 -1.351900
									CHANNELS 3 Xrotation Yrotation Zrotation
									End Site
									{
										OFFSET 0 0 0
									}
								}
							}
						}
						JOINT LeftShoulder_virtual
						{
							OFFSET 0.000000 0.000000 0.000000
							CHANNELS 3 Xrotation Yrotation Zrotation
							JOINT LeftShoulder
							{
								OFFSET 15.263000 10.923401 -0.547700
								CHANNELS 3 Xrotation Yrotation Zrotation
								JOINT LeftArm
								{
									OFFSET 25.438599 -2.830597 -13.032500
									CHANNELS 3 Xrotation Yrotation Zrotation
									JOINT LeftForeArm
									{
										OFFSET 29.960503 0.000000 0.000000
										CHANNELS 3 Xrotation Yrotation Zrotation
										JOINT LeftHand
										{
											OFFSET 27.849251 0.000000 0.000000
											CHANNELS 3 Xrotation Yrotation Zrotation
											End Site
											{
												OFFSET 0 0 0
											}
										}
									}
								}
							}
						}
						JOINT RightShoulder_virtual
						{
							OFFSET 0.000000 0.000000 0.000000
							CHANNELS 3 Xrotation Yrotation Zrotation
							JOINT RightShoulder
							{
								OFFSET -15.263000 10.923401 -0.547700
								CHANNELS 3 Xrotation Yrotation Zrotation
								JOINT RightArm
								{
									OFFSET -25.438599 -2.830597 -13.032500
									CHANNELS 3 Xrotation Yrotation Zrotation
									JOINT RightForeArm
									{
										OFFSET -29.960503 0.000000 0.000000
										CHANNELS 3 Xrotation Yrotation Zrotation
										JOINT RightHand
										{
											OFFSET -27.849251 0.000000 0.000000
											CHANNELS 3 Xrotation Yrotation Zrotation
											End Site
											{
												OFFSET 0 0 0
											}
										}
									}
								}
							}
						}
					}
				}
			}
		}
	}
}
MOTION
Frames: 10
Frame Time: 0.03333333
-10.100904 72.814758 0.292255 0.000000 0.000000 0.000000 -7.761034 -24.318866 -0.941381 -52.911187 1.869902 17.319732 61.553214 -11.637786 -3.587999 6.193408 -10.980088 -21.118380 0.000000 0.000000 0.000000 9.055909 20.123387 3.772731 -16.220133 -0.814672 -7.771602 64.064128 -0.168322 -4.325479 -2.231226 -0.371930 5.562050 0.000000 0.000000 0.000000 3.411188 2.002931 1.668736 -4.872278 1.618220 5.232839 8.385486 -1.091157 -4.205540 6.809518 -0.754182 -3.306497 0.000000 0.000000 0.000000 6.424175 -1.441368 -1.274820 1.470177 -1.419398 1.245986 0.000000 0.000000 0.000000 3.902133 -2.279935 -4.272998 -3.807553 -22.103481 -8.103027 -60.373149 -17.307836 -55.725727 -46.187792 -74.315183 -41.780858 0.000000 0.000000 0.000000 3.977354 3.352030 -1.036860 0.636573 19.590627 -6.083199 -48.841713 17.179889 50.790444 -54.710529 66.932589 57.537152 0.000000 0.000000 0.000000 
-10.104723 74.603149 1.082561 0.000000 0.000000 0.000000 -6.249617 -23.932739 -1.266042 -50.870265 2.503648 16.672620 59.531560 -11.387209 -3.429665 4.733461 -10.678344 -20.511893 0.000000 0.000000 0.000000 9.623328 18.436590 4.009000 -15.356557 -1.396237 -7.588270 60.428712 -0.846285 -4.671845 -3.746544 -0.897161 4.281300 0.000000 0.000000 0.000000 3.832373 2.842243 1.557482 -3.799348 1.995511 4.903199 7.766394 -1.407504 -4.526369 6.261443 -0.850009 -3.389336 0.000000 0.000000 0.000000 5.076297 -1.840706 -1.621887 0.729939 -1.599606 1.003383 0.000000 0.000000 0.000000 2.851086 -2.102161 -4.352786 -4.733472 -21.082339 -8.621103 -55.408916 -18.854630 -52.805726 -33.359836 -72.600977 -29.565348 0.000000 0.000000 0.000000 3.479257 3.101536 -1.378539 0.201167 17.810654 -7.201401 -39.786006 23.329554 43.307586 -43.436134 69.954046 46.097295 0.000000 0.000000 0.000000 
-10.104406 76.589058 1.886427 0.000000 0.000000 0.000000 -4.667971 -23.875555 -1.495061 -48.691459 3.018612 16.054279 57.515254 -10.982051 -3.220440 3.343869 -10.263945 -19.708128 0.000000 0.000000 0.000000 10.178251 16.501360 4.238501 -14.526515 -2.037998 -7.454138 56.749573 -1.478037 -5.035452 -5.278431 -1.391608 3.002651 0.000000 0.000000 0.000000 4.392779 3.763491 1.434927 -2.062945 2.420022 4.583722 7.046865 -1.601739 -4.780886 5.636143 -0.871940 -3.424417 0.000000 0.000000 0.000000 3.516417 -2.132138 -2.060133 -0.101263 -1.722799 0.713545 0.000000 0.000000 0.000000 1.765163 -1.822185 -4.324086 -5.561463 -19.784346 -8.662495 -49.398141 -20.206872 -48.839230 -21.664858 -69.676071 -18.496540 0.000000 0.000000 0.000000 3.109077 2.634284 -2.008914 -0.022358 15.160230 -9.591817 -26.858180 28.471476 30.348928 -25.262536 71.075003 27.236551 0.000000 0.000000 0.000000 
-10.003229 79.498146 2.794754 0.000000 0.000000 0.000000 -2.935546 -24.066540 -1.418916 -46.303509 3.359840 15.642544 55.397506 -10.434516 -2.905150 2.036550 -9.802892 -18.641833 0.000000 0.000000 0.000000 10.503491 14.027952 4.549629 -14.007753 -2.802022 -7.324684 52.558432 -2.021019 -5.296106 -7.121776 -1.910814 1.909303 0.000000 0.000000 0.000000 4.858545 4.238208 1.340605 -0.803166 2.197322 4.390710 6.014020 -1.698480 -4.908109 4.796639 -0.826320 -3.379179 0.000000 0.000000 0.000000 0.868675 -2.153158 -2.411640 -1.437143 -1.702266 0.482820 0.000000 0.000000 0.000000 0.791508 -1.349757 -4.092481 -6.093855 -17.782334 -7.823578 -42.114397 -21.046509 -42.756059 -11.396075 -64.682281 -8.617287 0.000000 0.000000 0.000000 2.147555 2.139536 -2.385018 -1.102983 12.438205 -10.844472 -13.388305 28.089681 17.986414 -8.997765 67.805125 10.740154 0.000000 0.000000 0.000000 
-9.768295 82.219208 3.660484 0.000000 0.000000 0.000000 -1.319251 -24.136471 -1.240559 -44.013889 3.646162 15.330269 53.378707 -9.776131 -2.525402 0.871053 -9.285970 -17.406437 0.000000 0.000000 0.000000 10.796013 11.100590 4.617194 -13.614175 -3.639446 -7.537864 48.702910 -2.421765 -5.503848 -8.796923 -2.330966 1.005922 0.000000 0.000000 0.000000 5.254365 4.945902 1.231071 0.010070 2.552439 4.338998 5.099917 -1.517446 -4.959661 4.004857 -0.627946 -3.282913 0.000000 0.000000 0.000000 -1.614818 -1.881643 -2.654625 -2.690054 -1.520211 0.316430 0.000000 0.000000 0.000000 -0.079710 -0.702674 -3.734770 -6.480782 -15.249644 -6.426801 -33.603974 -20.814621 -35.884260 -4.022184 -58.681236 -1.748377 0.000000 0.000000 0.000000 1.045518 1.754826 -2.506078 -2.457422 10.027447 -10.975708 -1.175102 23.539059 8.927378 0.856025 61.801573 1.284376 0.000000 0.000000 0.000000 
-9.389387 84.724907 4.440273 0.000000 0.000000 0.000000 0.035420 -24.410232 -1.045503 -42.088869 3.814299 15.095580 51.581981 -9.175376 -2.094956 -0.224178 -8.840398 -16.149441 0.000000 0.000000 0.000000 10.972605 7.869700 4.450323 -13.466970 -4.505305 -8.089403 45.462077 -2.643273 -5.669093 -10.171603 -2.593454 0.319767 0.000000 0.000000 0.000000 5.594142 5.676211 1.057548 0.597144 3.009752 3.856034 4.174778 -1.142935 -4.899524 3.216321 -0.325870 -3.124903 0.000000 0.000000 0.000000 -3.913812 -1.456418 -2.824828 -3.831396 -1.262009 0.186263 0.000000 0.000000 0.000000 -0.635576 0.071294 -3.242481 -6.594635 -12.398020 -4.502290 -23.828488 -19.928540 -28.926882 1.692804 -52.542374 3.102775 0.000000 0.000000 0.000000 -0.055679 1.472832 -2.372237 -3.871081 7.876649 -10.024457 8.577114 16.617072 4.276353 6.063363 54.526578 -2.966851 0.000000 0.000000 0.000000 
-9.181572 86.620972 5.302889 0.000000 0.000000 0.000000 1.220927 -24.736384 -1.082292 -40.454142 4.046458 14.718732 50.604653 -9.022420 -1.871854 -0.890148 -8.760743 -15.605632 0.000000 0.000000 0.000000 11.057177 5.018065 4.077667 -13.518117 -5.226266 -8.872070 43.329241 -2.549477 -5.682244 -10.974852 -2.598461 0.154041 0.000000 0.000000 0.000000 5.987656 6.166530 0.850882 1.061534 2.989054 3.117663 3.366049 -0.659310 -4.750567 2.497449 0.036709 -2.932881 0.000000 0.000000 0.000000 -6.010873 -1.056285 -2.866626 -4.863955 -1.032911 0.117684 0.000000 0.000000 0.000000 -1.055420 0.907032 -2.733669 -6.699659 -9.415669 -2.570881 -13.639294 -17.674783 -22.711060 6.048110 -46.205717 6.265225 0.000000 0.000000 0.000000 -1.051544 1.210469 -2.094543 -5.193039 5.671686 -8.466342 16.344026 8.562810 2.919199 8.974019 46.452981 -4.600956 0.000000 0.000000 0.000000 
-8.946054 88.014656 5.945204 0.000000 0.000000 0.000000 2.037667 -24.735202 -1.217634 -39.338017 4.312251 14.379578 49.962837 -9.008253 -1.714529 -1.338922 -8.805050 -15.290258 0.000000 0.000000 0.000000 10.980486 2.925910 4.270335 -13.651730 -5.809609 -8.909079 42.202697 -1.846469 -5.187252 -11.099828 -2.248396 1.255076 0.000000 0.000000 0.000000 6.326414 6.546945 0.683596 1.156476 2.971410 2.432436 2.679904 -0.169237 -4.447555 1.854922 0.411130 -2.672224 0.000000 0.000000 0.000000 -7.986119 -0.539747 -2.826533 -5.832118 -0.736425 0.083163 0.000000 0.000000 0.000000 -1.236045 1.713342 -2.267568 -6.735887 -6.559397 -0.882695 -3.007260 -14.648497 -18.105990 9.892486 -40.403885 8.339436 0.000000 0.000000 0.000000 -1.780838 1.058317 -1.779935 -6.191819 3.868612 -6.775996 22.413693 1.188756 4.040252 10.717957 39.071964 -4.887621 0.000000 0.000000 0.000000 
-8.674362 89.193825 6.218731 0.000000 0.000000 0.000000 2.307907 -24.347905 -1.616551 -38.937215 4.649387 13.963315 49.577714 -9.172184 -1.773232 -1.689806 -8.916274 -15.457649 0.000000 0.000000 0.000000 11.044625 1.040547 3.715492 -13.770875 -6.239875 -9.818392 42.309071 -1.249620 -5.016753 -10.460587 -1.736741 1.841124 0.000000 0.000000 0.000000 6.608694 6.776305 0.554141 1.041555 2.370709 1.980916 2.229818 0.312953 -4.040392 1.378833 0.774297 -2.361016 0.000000 0.000000 0.000000 -9.349066 -0.109526 -2.337073 -6.507372 -0.486444 0.284174 0.000000 0.000000 0.000000 -1.298131 2.452271 -1.821929 -6.785261 -4.022839 0.697288 6.747452 -11.134293 -15.258192 13.084829 -35.199742 9.518145 0.000000 0.000000 0.000000 -2.364408 0.986150 -1.375917 -7.027184 2.326780 -4.750607 27.234314 -5.263754 7.184438 11.730618 32.237236 -4.245475 0.000000 0.000000 0.000000 
-8.325796 90.114174 6.399513 0.000000 0.000000 0.000000 2.465917 -24.188983 -2.021101 -38.765360 4.917103 13.586697 49.529253 -9.412233 -1.825482 -1.778571 -9.132824 -15.697320 0.000000 0.000000 0.000000 10.988396 -0.082642 3.585329 -13.971139 -6.515502 -10.146591 43.505136 -0.202329 -4.554161 -9.086442 -0.867356 3.304942 0.000000 0.000000 0.000000 6.873608 6.729052 0.411363 0.828193 0.881346 1.410172 1.904921 0.704685 -3.539362 1.012416 1.077637 -2.010452 0.000000 0.000000 0.000000 -10.949418 0.324061 -1.870709 -7.298673 -0.232607 0.465678 0.000000 0.000000 0.000000 -1.323928 3.107264 -1.381334 -6.898226 -1.745643 2.229438 14.823860 -7.430033 -13.600527 15.627073 -30.514218 10.184538 0.000000 0.000000 0.000000 -2.785927 0.936360 -1.000812 -7.663656 0.958931 -2.908353 30.629393 -11.384597 10.887125 12.171506 25.537290 -3.303612 0.000000 0.000000 0.000000 
